Coordinates
version=1
nRows=11
nColumns=40
inDegrees=yes

Units are S.I. units (second, meters, Newtons, ...)
Angles are in degrees.

endheader
time	pelvis_tilt	pelvis_list	pelvis_rotation	pelvis_tx	pelvis_ty	pelvis_tz	hip_flexion_r	hip_adduction_r	hip_rotation_r	knee_angle_r	knee_angle_r_beta	ankle_angle_r	subtalar_angle_r	mtp_angle_r	hip_flexion_l	hip_adduction_l	hip_rotation_l	knee_angle_l	knee_angle_l_beta	ankle_angle_l	subtalar_angle_l	mtp_angle_l	lumbar_extension	lumbar_bending	lumbar_rotation	arm_flex_r	arm_add_r	arm_rot_r	elbow_flex_r	pro_sup_r	wrist_flex_r	wrist_dev_r	arm_flex_l	arm_add_l	arm_rot_l	elbow_flex_l	pro_sup_l	wrist_flex_l	wrist_dev_l
     55.89250000	     -1.40412864	     -3.49660271	     -4.19235648	      0.93138770	      0.91006091	      0.38267787	     23.95514655	     -8.21440218	     -5.71245347	     65.80820905	     65.80820905	     12.19587587	    -19.54954364	     20.58142461	     15.22705180	      0.39408656	     -2.83330641	     35.16023379	     35.16023379	     24.38613318	    -18.68226521	     10.93397747	    -11.45151176	      6.29952465	      2.42623011	     14.63129343	    -13.03323977	     -8.69051696	     23.17747930	     47.05647222	      0.00000000	      0.00000000	     17.77477371	    -13.78036051	     14.82994331	     38.84431607	     44.91535580	      0.00000000	      0.00000000
     55.91185714	     -1.37714215	     -3.59982521	     -4.86399637	      0.93018370	      0.91129040	      0.38325453	     24.99089392	     -7.55969540	     -5.27494063	     64.28899209	     64.28899209	     12.78669665	    -19.51000773	     20.13863259	     14.45598307	      0.19827475	     -3.39131431	     34.52643805	     34.52643805	     24.49951408	    -18.62992618	     11.09695367	    -11.51999940	      6.63460473	      2.30792752	     11.20966029	    -13.09697844	     -9.03132449	     22.10792234	     47.10077719	      0.00000000	      0.00000000	     18.79385029	    -14.42039711	     13.72908908	     40.84814637	     45.07970058	      0.00000000	      0.00000000
     55.93121429	     -1.44729041	     -3.74392934	     -5.50545896	      0.92876107	      0.91311675	      0.38422824	     25.91910405	     -6.83385074	     -4.97362226	     62.11211618	     62.11211618	     12.90574122	    -19.44295928	     18.67615192	     13.58755413	     -0.06032029	     -3.96460781	     33.46741361	     33.46741361	     24.28739978	    -18.54724532	     10.89652518	    -11.57939116	      6.94152893	      2.03906773	      7.72920112	    -13.29009982	     -9.73272672	     22.02695688	     47.13444547	      0.00000000	      0.00000000	     19.44050378	    -15.16568734	     11.60904478	     43.75477652	     45.36826874	      0.00000000	      0.00000000
     55.95057143	     -1.55171783	     -3.87260026	     -6.13477557	      0.92719687	      0.91554732	      0.38570892	     26.68321925	     -6.02340805	     -4.62675787	     59.36224881	     59.36224881	     12.92682664	    -19.34032475	     17.76241672	     12.65417437	     -0.32645108	     -4.54747404	     32.19829860	     32.19829860	     23.95711041	    -18.41203671	     10.90020286	    -11.56791244	      7.19772122	      1.75561361	      4.45935653	    -13.15290675	     -9.98147575	     21.28024015	     47.15666061	      0.00000000	      0.00000000	     20.55614558	    -15.95193191	     10.44331226	     45.24131887	     45.52429654	      0.00000000	      0.00000000
     55.96992857	     -1.75802473	     -4.03702854	     -6.74215872	      0.92549342	      0.91816420	      0.38744823	     27.23218490	     -5.23372984	     -4.47234613	     55.89503119	     55.89503119	     11.78610244	    -19.19502439	     13.80419792	     11.68260468	     -0.64779220	     -5.17630573	     30.61510858	     30.61510858	     23.17765497	    -18.26305748	      9.95161975	    -11.53451699	      7.50510003	      1.29973886	      0.99418263	    -13.13039427	    -10.83669584	     22.18373604	     47.15541221	      0.00000000	      0.00000000	     21.03257266	    -16.66020308	      7.48539163	     48.08071110	     45.89038343	      0.00000000	      0.00000000
     55.98928571	     -1.94859695	     -4.21757523	     -7.35911476	      0.92361711	      0.92102203	      0.38961387	     27.63869094	     -4.29964700	     -4.13651066	     52.15714188	     52.15714188	     11.28408352	    -18.84387371	     12.75263194	     10.63953588	     -0.97814121	     -5.78982898	     28.94841369	     28.94841369	     22.72000860	    -17.98124551	     10.02325949	    -11.52045129	      7.75770611	      1.34549269	     -2.03517912	    -13.18055667	    -11.04103769	     21.48063994	     47.17286498	      0.00000000	      0.00000000	     22.36526588	    -17.35762756	      6.45954454	     49.69996817	     46.02466604	      0.00000000	      0.00000000
     56.00864286	     -2.29386774	     -4.35845299	     -7.94460649	      0.92167410	      0.92349819	      0.39190204	     27.80075680	     -3.56491016	     -4.11166613	     47.67669904	     47.67669904	      8.99851722	    -18.39856579	      6.70339805	      9.72477717	     -1.29090865	     -6.47804153	     27.15448004	     27.15448004	     21.72269380	    -17.74978373	      8.74837223	    -11.39546477	      8.00595442	      1.00901825	     -5.35908538	    -13.16165947	    -12.02244399	     22.89958154	     47.15357565	      0.00000000	      0.00000000	     22.76405595	    -18.00951449	      3.67921055	     52.88552863	     46.34534598	      0.00000000	      0.00000000
     56.02800000	     -2.52309232	     -4.46377950	     -8.50890991	      0.91972619	      0.92582649	      0.39448465	     27.67639975	     -2.88984679	     -4.06554622	     43.05629852	     43.05629852	      7.13551077	    -17.41676263	      2.25526741	      8.66021076	     -1.54026110	     -7.14210514	     25.34021914	     25.34021914	     20.97231323	    -17.37404441	      7.98357533	    -11.34392493	      8.17116992	      0.82316796	     -8.00500853	    -13.10346269	    -12.73836363	     23.07374148	     47.16485793	      0.00000000	      0.00000000	     23.72229885	    -18.68301995	      1.77164012	     54.89557000	     46.57828055	      0.00000000	      0.00000000
     56.04735714	     -2.74343801	     -4.48771801	     -9.07555668	      0.91777755	      0.92767068	      0.39721329	     27.54300437	     -2.37593153	     -4.07996782	     38.72965110	     38.72965110	      6.62422870	    -15.08598389	      1.74102141	      7.66582509	     -1.69204461	     -7.84335470	     23.69056984	     23.69056984	     20.62402634	    -16.84937914	      7.97924382	    -11.29038960	      8.21929744	      0.95212665	    -10.39524686	    -13.04348366	    -13.00543107	     22.68349540	     47.17562953	      0.00000000	      0.00000000	     25.01493181	    -19.30445371	      0.88206580	     56.58489271	     46.69156402	      0.00000000	      0.00000000
     56.06671429	     -3.16975329	     -4.51167416	     -9.56925185	      0.91578317	      0.92862422	      0.40006702	     27.46066810	     -1.87998398	     -4.21625721	     34.43902988	     34.43902988	      6.19682383	    -12.41065693	      1.85604324	      7.06141477	     -1.89443208	     -8.46751457	     22.36152079	     22.36152079	     20.43137450	    -16.28673208	      7.96941135	    -10.92666143	      8.36596611	      0.79839035	    -12.33414611	    -12.97436553	    -13.18701904	     22.35732591	     47.18367201	      0.00000000	      0.00000000	     26.16156942	    -20.11322770	      0.19328894	     57.74379182	     46.77364219	      0.00000000	      0.00000000
     56.08607143	     -3.13565554	     -4.35777134	    -10.07772552	      0.91428700	      0.92933965	      0.40290050	     26.79787870	     -1.86995078	     -4.83615411	     30.36309829	     30.36309829	      5.23257826	     -8.77973907	     -0.40308864	      5.79860013	     -1.78623307	     -9.25205136	     20.68337714	     20.68337714	     19.42125868	    -15.92321590	      5.67996829	    -11.21816301	      8.19939149	      0.69800983	    -14.75083967	    -12.81754565	    -14.75951357	     24.39070810	     47.17326309	      0.00000000	      0.00000000	     26.45653996	    -20.42503062	     -2.99987439	     61.67868707	     47.10854376	      0.00000000	      0.00000000
